<mxfile host="www.draw.io" modified="2020-02-25T08:24:59.027Z" agent="Mozilla/5.0 (Windows NT 6.1; Win64; x64) AppleWebKit/537.36 (KHTML, like Gecko) Chrome/74.0.3729.157 Safari/537.36" etag="7LnwEdgL1hDf5k_lRko0" version="12.7.4" type="github">
  <diagram id="C5RBs43oDa-KdzZeNtuy" name="Page-1">
    <mxGraphModel dx="2379" dy="1858" grid="1" gridSize="10" guides="1" tooltips="1" connect="1" arrows="1" fold="1" page="1" pageScale="1" pageWidth="827" pageHeight="1169" math="0" shadow="0">
      <root>
        <mxCell id="WIyWlLk6GJQsqaUBKTNV-0" />
        <mxCell id="WIyWlLk6GJQsqaUBKTNV-1" parent="WIyWlLk6GJQsqaUBKTNV-0" />
        <mxCell id="dVmutsHbmYvGbCXH2BlX-0" value="设置" style="rhombus;whiteSpace=wrap;html=1;" parent="WIyWlLk6GJQsqaUBKTNV-1" vertex="1">
          <mxGeometry x="490" y="110" width="80" height="80" as="geometry" />
        </mxCell>
        <mxCell id="dVmutsHbmYvGbCXH2BlX-1" value="客户" style="rounded=0;whiteSpace=wrap;html=1;" parent="WIyWlLk6GJQsqaUBKTNV-1" vertex="1">
          <mxGeometry x="80" y="120" width="120" height="60" as="geometry" />
        </mxCell>
        <mxCell id="dVmutsHbmYvGbCXH2BlX-2" value="客户关键词" style="rounded=0;whiteSpace=wrap;html=1;" parent="WIyWlLk6GJQsqaUBKTNV-1" vertex="1">
          <mxGeometry x="740" y="120" width="120" height="60" as="geometry" />
        </mxCell>
        <mxCell id="dVmutsHbmYvGbCXH2BlX-3" value="SDK词库" style="rounded=0;whiteSpace=wrap;html=1;" parent="WIyWlLk6GJQsqaUBKTNV-1" vertex="1">
          <mxGeometry x="740" y="540" width="120" height="60" as="geometry" />
        </mxCell>
        <mxCell id="dVmutsHbmYvGbCXH2BlX-11" style="edgeStyle=orthogonalEdgeStyle;rounded=0;orthogonalLoop=1;jettySize=auto;html=1;entryX=0.5;entryY=0;entryDx=0;entryDy=0;strokeColor=none;exitX=0.5;exitY=1;exitDx=0;exitDy=0;" parent="WIyWlLk6GJQsqaUBKTNV-1" source="dVmutsHbmYvGbCXH2BlX-4" target="dVmutsHbmYvGbCXH2BlX-3" edge="1">
          <mxGeometry relative="1" as="geometry">
            <mxPoint x="590" y="360" as="sourcePoint" />
          </mxGeometry>
        </mxCell>
        <mxCell id="dVmutsHbmYvGbCXH2BlX-4" value="生成" style="rhombus;whiteSpace=wrap;html=1;" parent="WIyWlLk6GJQsqaUBKTNV-1" vertex="1">
          <mxGeometry x="760" y="310" width="80" height="80" as="geometry" />
        </mxCell>
        <mxCell id="dVmutsHbmYvGbCXH2BlX-8" value="" style="endArrow=none;html=1;entryX=0.5;entryY=1;entryDx=0;entryDy=0;" parent="WIyWlLk6GJQsqaUBKTNV-1" source="dVmutsHbmYvGbCXH2BlX-4" target="dVmutsHbmYvGbCXH2BlX-2" edge="1">
          <mxGeometry width="50" height="50" relative="1" as="geometry">
            <mxPoint x="390" y="180" as="sourcePoint" />
            <mxPoint x="440" y="130" as="targetPoint" />
          </mxGeometry>
        </mxCell>
        <mxCell id="dVmutsHbmYvGbCXH2BlX-82" value="N" style="text;html=1;align=center;verticalAlign=middle;resizable=0;points=[];labelBackgroundColor=#ffffff;" parent="dVmutsHbmYvGbCXH2BlX-8" vertex="1" connectable="0">
          <mxGeometry x="0.3998" relative="1" as="geometry">
            <mxPoint as="offset" />
          </mxGeometry>
        </mxCell>
        <mxCell id="dVmutsHbmYvGbCXH2BlX-9" value="" style="endArrow=none;html=1;entryX=0;entryY=0.5;entryDx=0;entryDy=0;exitX=1;exitY=0.5;exitDx=0;exitDy=0;" parent="WIyWlLk6GJQsqaUBKTNV-1" source="dVmutsHbmYvGbCXH2BlX-1" target="dVmutsHbmYvGbCXH2BlX-0" edge="1">
          <mxGeometry width="50" height="50" relative="1" as="geometry">
            <mxPoint x="180" y="170" as="sourcePoint" />
            <mxPoint x="230" y="120" as="targetPoint" />
          </mxGeometry>
        </mxCell>
        <mxCell id="dVmutsHbmYvGbCXH2BlX-19" value="1" style="text;html=1;align=center;verticalAlign=middle;resizable=0;points=[];labelBackgroundColor=#ffffff;" parent="dVmutsHbmYvGbCXH2BlX-9" vertex="1" connectable="0">
          <mxGeometry x="0.2308" y="-1" relative="1" as="geometry">
            <mxPoint as="offset" />
          </mxGeometry>
        </mxCell>
        <mxCell id="dVmutsHbmYvGbCXH2BlX-12" value="" style="endArrow=none;html=1;entryX=0.5;entryY=1;entryDx=0;entryDy=0;exitX=0.5;exitY=0;exitDx=0;exitDy=0;" parent="WIyWlLk6GJQsqaUBKTNV-1" source="dVmutsHbmYvGbCXH2BlX-3" target="dVmutsHbmYvGbCXH2BlX-4" edge="1">
          <mxGeometry width="50" height="50" relative="1" as="geometry">
            <mxPoint x="390" y="280" as="sourcePoint" />
            <mxPoint x="440" y="230" as="targetPoint" />
          </mxGeometry>
        </mxCell>
        <mxCell id="dVmutsHbmYvGbCXH2BlX-83" value="1" style="text;html=1;align=center;verticalAlign=middle;resizable=0;points=[];labelBackgroundColor=#ffffff;" parent="dVmutsHbmYvGbCXH2BlX-12" vertex="1" connectable="0">
          <mxGeometry x="0.3332" relative="1" as="geometry">
            <mxPoint as="offset" />
          </mxGeometry>
        </mxCell>
        <mxCell id="dVmutsHbmYvGbCXH2BlX-24" value="用户" style="rounded=0;whiteSpace=wrap;html=1;" parent="WIyWlLk6GJQsqaUBKTNV-1" vertex="1">
          <mxGeometry x="80" y="920" width="120" height="60" as="geometry" />
        </mxCell>
        <mxCell id="dVmutsHbmYvGbCXH2BlX-25" value="帖子" style="rounded=0;whiteSpace=wrap;html=1;" parent="WIyWlLk6GJQsqaUBKTNV-1" vertex="1">
          <mxGeometry x="530" y="810" width="120" height="60" as="geometry" />
        </mxCell>
        <mxCell id="dVmutsHbmYvGbCXH2BlX-26" value="发表" style="rhombus;whiteSpace=wrap;html=1;" parent="WIyWlLk6GJQsqaUBKTNV-1" vertex="1">
          <mxGeometry x="330" y="910" width="80" height="80" as="geometry" />
        </mxCell>
        <mxCell id="dVmutsHbmYvGbCXH2BlX-27" value="" style="endArrow=none;html=1;exitX=1;exitY=0.5;exitDx=0;exitDy=0;entryX=0;entryY=0.5;entryDx=0;entryDy=0;" parent="WIyWlLk6GJQsqaUBKTNV-1" source="dVmutsHbmYvGbCXH2BlX-24" target="dVmutsHbmYvGbCXH2BlX-26" edge="1">
          <mxGeometry width="50" height="50" relative="1" as="geometry">
            <mxPoint x="390" y="610" as="sourcePoint" />
            <mxPoint x="440" y="560" as="targetPoint" />
          </mxGeometry>
        </mxCell>
        <mxCell id="dVmutsHbmYvGbCXH2BlX-46" value="1" style="text;html=1;align=center;verticalAlign=middle;resizable=0;points=[];labelBackgroundColor=#ffffff;" parent="dVmutsHbmYvGbCXH2BlX-27" vertex="1" connectable="0">
          <mxGeometry x="0.2195" y="2" relative="1" as="geometry">
            <mxPoint as="offset" />
          </mxGeometry>
        </mxCell>
        <mxCell id="dVmutsHbmYvGbCXH2BlX-29" value="筛选" style="rhombus;whiteSpace=wrap;html=1;" parent="WIyWlLk6GJQsqaUBKTNV-1" vertex="1">
          <mxGeometry x="760" y="910" width="80" height="80" as="geometry" />
        </mxCell>
        <mxCell id="dVmutsHbmYvGbCXH2BlX-30" value="声量记录" style="rounded=0;whiteSpace=wrap;html=1;" parent="WIyWlLk6GJQsqaUBKTNV-1" vertex="1">
          <mxGeometry x="1000" y="540" width="120" height="60" as="geometry" />
        </mxCell>
        <mxCell id="dVmutsHbmYvGbCXH2BlX-33" value="回复" style="rounded=0;whiteSpace=wrap;html=1;" parent="WIyWlLk6GJQsqaUBKTNV-1" vertex="1">
          <mxGeometry x="530" y="920" width="120" height="60" as="geometry" />
        </mxCell>
        <mxCell id="dVmutsHbmYvGbCXH2BlX-34" value="CMS" style="rounded=0;whiteSpace=wrap;html=1;" parent="WIyWlLk6GJQsqaUBKTNV-1" vertex="1">
          <mxGeometry x="530" y="1030" width="120" height="60" as="geometry" />
        </mxCell>
        <mxCell id="dVmutsHbmYvGbCXH2BlX-41" value="用户声量包" style="rounded=0;whiteSpace=wrap;html=1;" parent="WIyWlLk6GJQsqaUBKTNV-1" vertex="1">
          <mxGeometry x="1000" y="920" width="120" height="60" as="geometry" />
        </mxCell>
        <mxCell id="dVmutsHbmYvGbCXH2BlX-42" value="" style="endArrow=none;html=1;entryX=0;entryY=0.5;entryDx=0;entryDy=0;" parent="WIyWlLk6GJQsqaUBKTNV-1" target="dVmutsHbmYvGbCXH2BlX-33" edge="1">
          <mxGeometry width="50" height="50" relative="1" as="geometry">
            <mxPoint x="410" y="950" as="sourcePoint" />
            <mxPoint x="610" y="860" as="targetPoint" />
          </mxGeometry>
        </mxCell>
        <mxCell id="dVmutsHbmYvGbCXH2BlX-48" value="N" style="text;html=1;align=center;verticalAlign=middle;resizable=0;points=[];labelBackgroundColor=#ffffff;" parent="dVmutsHbmYvGbCXH2BlX-42" vertex="1" connectable="0">
          <mxGeometry x="0.3378" y="1" relative="1" as="geometry">
            <mxPoint as="offset" />
          </mxGeometry>
        </mxCell>
        <mxCell id="dVmutsHbmYvGbCXH2BlX-43" value="" style="endArrow=none;html=1;exitX=1;exitY=0.5;exitDx=0;exitDy=0;entryX=0;entryY=0.5;entryDx=0;entryDy=0;" parent="WIyWlLk6GJQsqaUBKTNV-1" source="dVmutsHbmYvGbCXH2BlX-26" target="dVmutsHbmYvGbCXH2BlX-34" edge="1">
          <mxGeometry width="50" height="50" relative="1" as="geometry">
            <mxPoint x="560" y="910" as="sourcePoint" />
            <mxPoint x="610" y="860" as="targetPoint" />
          </mxGeometry>
        </mxCell>
        <mxCell id="dVmutsHbmYvGbCXH2BlX-49" value="N" style="text;html=1;align=center;verticalAlign=middle;resizable=0;points=[];labelBackgroundColor=#ffffff;" parent="dVmutsHbmYvGbCXH2BlX-43" vertex="1" connectable="0">
          <mxGeometry x="0.1797" y="2" relative="1" as="geometry">
            <mxPoint as="offset" />
          </mxGeometry>
        </mxCell>
        <mxCell id="dVmutsHbmYvGbCXH2BlX-45" value="" style="endArrow=none;html=1;exitX=1;exitY=0.5;exitDx=0;exitDy=0;entryX=0;entryY=0.5;entryDx=0;entryDy=0;" parent="WIyWlLk6GJQsqaUBKTNV-1" source="dVmutsHbmYvGbCXH2BlX-26" target="dVmutsHbmYvGbCXH2BlX-25" edge="1">
          <mxGeometry width="50" height="50" relative="1" as="geometry">
            <mxPoint x="560" y="910" as="sourcePoint" />
            <mxPoint x="610" y="860" as="targetPoint" />
          </mxGeometry>
        </mxCell>
        <mxCell id="dVmutsHbmYvGbCXH2BlX-47" value="N" style="text;html=1;align=center;verticalAlign=middle;resizable=0;points=[];labelBackgroundColor=#ffffff;" parent="dVmutsHbmYvGbCXH2BlX-45" vertex="1" connectable="0">
          <mxGeometry x="0.1233" y="-3" relative="1" as="geometry">
            <mxPoint as="offset" />
          </mxGeometry>
        </mxCell>
        <mxCell id="dVmutsHbmYvGbCXH2BlX-51" value="" style="endArrow=none;html=1;exitX=1;exitY=0.5;exitDx=0;exitDy=0;entryX=0;entryY=0.5;entryDx=0;entryDy=0;" parent="WIyWlLk6GJQsqaUBKTNV-1" source="dVmutsHbmYvGbCXH2BlX-25" target="dVmutsHbmYvGbCXH2BlX-29" edge="1">
          <mxGeometry width="50" height="50" relative="1" as="geometry">
            <mxPoint x="680" y="890" as="sourcePoint" />
            <mxPoint x="730" y="840" as="targetPoint" />
          </mxGeometry>
        </mxCell>
        <mxCell id="dVmutsHbmYvGbCXH2BlX-54" value="N" style="text;html=1;align=center;verticalAlign=middle;resizable=0;points=[];labelBackgroundColor=#ffffff;" parent="dVmutsHbmYvGbCXH2BlX-51" vertex="1" connectable="0">
          <mxGeometry x="-0.1861" y="4" relative="1" as="geometry">
            <mxPoint y="1" as="offset" />
          </mxGeometry>
        </mxCell>
        <mxCell id="dVmutsHbmYvGbCXH2BlX-52" value="" style="endArrow=none;html=1;exitX=1;exitY=0.5;exitDx=0;exitDy=0;" parent="WIyWlLk6GJQsqaUBKTNV-1" source="dVmutsHbmYvGbCXH2BlX-33" edge="1">
          <mxGeometry width="50" height="50" relative="1" as="geometry">
            <mxPoint x="560" y="910" as="sourcePoint" />
            <mxPoint x="760" y="950" as="targetPoint" />
          </mxGeometry>
        </mxCell>
        <mxCell id="dVmutsHbmYvGbCXH2BlX-55" value="N" style="text;html=1;align=center;verticalAlign=middle;resizable=0;points=[];labelBackgroundColor=#ffffff;" parent="dVmutsHbmYvGbCXH2BlX-52" vertex="1" connectable="0">
          <mxGeometry x="-0.2315" y="1" relative="1" as="geometry">
            <mxPoint as="offset" />
          </mxGeometry>
        </mxCell>
        <mxCell id="dVmutsHbmYvGbCXH2BlX-53" value="" style="endArrow=none;html=1;exitX=1;exitY=0.5;exitDx=0;exitDy=0;entryX=0;entryY=0.5;entryDx=0;entryDy=0;" parent="WIyWlLk6GJQsqaUBKTNV-1" source="dVmutsHbmYvGbCXH2BlX-34" target="dVmutsHbmYvGbCXH2BlX-29" edge="1">
          <mxGeometry width="50" height="50" relative="1" as="geometry">
            <mxPoint x="560" y="910" as="sourcePoint" />
            <mxPoint x="720" y="960" as="targetPoint" />
          </mxGeometry>
        </mxCell>
        <mxCell id="dVmutsHbmYvGbCXH2BlX-56" value="N" style="text;html=1;align=center;verticalAlign=middle;resizable=0;points=[];labelBackgroundColor=#ffffff;" parent="dVmutsHbmYvGbCXH2BlX-53" vertex="1" connectable="0">
          <mxGeometry x="-0.1636" y="-5" relative="1" as="geometry">
            <mxPoint as="offset" />
          </mxGeometry>
        </mxCell>
        <mxCell id="dVmutsHbmYvGbCXH2BlX-57" value="" style="endArrow=none;html=1;exitX=1;exitY=0.5;exitDx=0;exitDy=0;" parent="WIyWlLk6GJQsqaUBKTNV-1" source="dVmutsHbmYvGbCXH2BlX-29" target="dVmutsHbmYvGbCXH2BlX-41" edge="1">
          <mxGeometry width="50" height="50" relative="1" as="geometry">
            <mxPoint x="560" y="910" as="sourcePoint" />
            <mxPoint x="610" y="860" as="targetPoint" />
          </mxGeometry>
        </mxCell>
        <mxCell id="dVmutsHbmYvGbCXH2BlX-58" value="1" style="text;html=1;align=center;verticalAlign=middle;resizable=0;points=[];labelBackgroundColor=#ffffff;" parent="dVmutsHbmYvGbCXH2BlX-57" vertex="1" connectable="0">
          <mxGeometry x="-0.5184" y="-2" relative="1" as="geometry">
            <mxPoint as="offset" />
          </mxGeometry>
        </mxCell>
        <mxCell id="dVmutsHbmYvGbCXH2BlX-59" value="分析" style="rhombus;whiteSpace=wrap;html=1;" parent="WIyWlLk6GJQsqaUBKTNV-1" vertex="1">
          <mxGeometry x="1020" y="720" width="80" height="80" as="geometry" />
        </mxCell>
        <mxCell id="dVmutsHbmYvGbCXH2BlX-60" value="" style="endArrow=none;html=1;exitX=0.5;exitY=0;exitDx=0;exitDy=0;entryX=0.5;entryY=1;entryDx=0;entryDy=0;" parent="WIyWlLk6GJQsqaUBKTNV-1" source="dVmutsHbmYvGbCXH2BlX-41" target="dVmutsHbmYvGbCXH2BlX-59" edge="1">
          <mxGeometry width="50" height="50" relative="1" as="geometry">
            <mxPoint x="560" y="790" as="sourcePoint" />
            <mxPoint x="610" y="740" as="targetPoint" />
          </mxGeometry>
        </mxCell>
        <mxCell id="dVmutsHbmYvGbCXH2BlX-66" value="N" style="text;html=1;align=center;verticalAlign=middle;resizable=0;points=[];labelBackgroundColor=#ffffff;" parent="dVmutsHbmYvGbCXH2BlX-60" vertex="1" connectable="0">
          <mxGeometry x="0.179" y="5" relative="1" as="geometry">
            <mxPoint as="offset" />
          </mxGeometry>
        </mxCell>
        <mxCell id="dVmutsHbmYvGbCXH2BlX-61" value="" style="endArrow=none;html=1;exitX=0.5;exitY=0;exitDx=0;exitDy=0;entryX=0.5;entryY=1;entryDx=0;entryDy=0;" parent="WIyWlLk6GJQsqaUBKTNV-1" source="dVmutsHbmYvGbCXH2BlX-59" target="dVmutsHbmYvGbCXH2BlX-30" edge="1">
          <mxGeometry width="50" height="50" relative="1" as="geometry">
            <mxPoint x="560" y="790" as="sourcePoint" />
            <mxPoint x="970" y="601" as="targetPoint" />
          </mxGeometry>
        </mxCell>
        <mxCell id="dVmutsHbmYvGbCXH2BlX-65" value="M" style="text;html=1;align=center;verticalAlign=middle;resizable=0;points=[];labelBackgroundColor=#ffffff;" parent="dVmutsHbmYvGbCXH2BlX-61" vertex="1" connectable="0">
          <mxGeometry x="0.4623" y="-2" relative="1" as="geometry">
            <mxPoint as="offset" />
          </mxGeometry>
        </mxCell>
        <mxCell id="dVmutsHbmYvGbCXH2BlX-62" value="" style="endArrow=none;html=1;entryX=0.5;entryY=1;entryDx=0;entryDy=0;exitX=0.5;exitY=0;exitDx=0;exitDy=0;" parent="WIyWlLk6GJQsqaUBKTNV-1" source="dVmutsHbmYvGbCXH2BlX-29" target="dVmutsHbmYvGbCXH2BlX-3" edge="1">
          <mxGeometry width="50" height="50" relative="1" as="geometry">
            <mxPoint x="560" y="540" as="sourcePoint" />
            <mxPoint x="610" y="490" as="targetPoint" />
          </mxGeometry>
        </mxCell>
        <mxCell id="dVmutsHbmYvGbCXH2BlX-92" value="1" style="text;html=1;align=center;verticalAlign=middle;resizable=0;points=[];labelBackgroundColor=#ffffff;" parent="dVmutsHbmYvGbCXH2BlX-62" vertex="1" connectable="0">
          <mxGeometry x="-0.2839" y="1" relative="1" as="geometry">
            <mxPoint as="offset" />
          </mxGeometry>
        </mxCell>
        <mxCell id="dVmutsHbmYvGbCXH2BlX-67" value="广告" style="rounded=0;whiteSpace=wrap;html=1;" parent="WIyWlLk6GJQsqaUBKTNV-1" vertex="1">
          <mxGeometry x="80" y="540" width="120" height="60" as="geometry" />
        </mxCell>
        <mxCell id="dVmutsHbmYvGbCXH2BlX-68" value="设置" style="rhombus;whiteSpace=wrap;html=1;" parent="WIyWlLk6GJQsqaUBKTNV-1" vertex="1">
          <mxGeometry x="100" y="360" width="80" height="80" as="geometry" />
        </mxCell>
        <mxCell id="dVmutsHbmYvGbCXH2BlX-70" value="" style="endArrow=none;html=1;entryX=0.5;entryY=1;entryDx=0;entryDy=0;exitX=0.5;exitY=0;exitDx=0;exitDy=0;" parent="WIyWlLk6GJQsqaUBKTNV-1" source="dVmutsHbmYvGbCXH2BlX-68" target="dVmutsHbmYvGbCXH2BlX-1" edge="1">
          <mxGeometry width="50" height="50" relative="1" as="geometry">
            <mxPoint x="560" y="410" as="sourcePoint" />
            <mxPoint x="610" y="360" as="targetPoint" />
          </mxGeometry>
        </mxCell>
        <mxCell id="dVmutsHbmYvGbCXH2BlX-84" value="1" style="text;html=1;align=center;verticalAlign=middle;resizable=0;points=[];labelBackgroundColor=#ffffff;" parent="dVmutsHbmYvGbCXH2BlX-70" vertex="1" connectable="0">
          <mxGeometry x="0.2332" y="3" relative="1" as="geometry">
            <mxPoint as="offset" />
          </mxGeometry>
        </mxCell>
        <mxCell id="dVmutsHbmYvGbCXH2BlX-71" value="" style="endArrow=none;html=1;entryX=0.5;entryY=1;entryDx=0;entryDy=0;exitX=0.5;exitY=0;exitDx=0;exitDy=0;" parent="WIyWlLk6GJQsqaUBKTNV-1" source="dVmutsHbmYvGbCXH2BlX-67" target="dVmutsHbmYvGbCXH2BlX-68" edge="1">
          <mxGeometry width="50" height="50" relative="1" as="geometry">
            <mxPoint x="560" y="660" as="sourcePoint" />
            <mxPoint x="610" y="610" as="targetPoint" />
            <Array as="points">
              <mxPoint x="140" y="490" />
            </Array>
          </mxGeometry>
        </mxCell>
        <mxCell id="dVmutsHbmYvGbCXH2BlX-86" value="N" style="text;html=1;align=center;verticalAlign=middle;resizable=0;points=[];labelBackgroundColor=#ffffff;" parent="dVmutsHbmYvGbCXH2BlX-71" vertex="1" connectable="0">
          <mxGeometry x="0.1998" y="1" relative="1" as="geometry">
            <mxPoint as="offset" />
          </mxGeometry>
        </mxCell>
        <mxCell id="dVmutsHbmYvGbCXH2BlX-74" value="声量正负向分析数据" style="rounded=0;whiteSpace=wrap;html=1;" parent="WIyWlLk6GJQsqaUBKTNV-1" vertex="1">
          <mxGeometry x="1000" y="120" width="120" height="60" as="geometry" />
        </mxCell>
        <mxCell id="dVmutsHbmYvGbCXH2BlX-75" value="判断" style="rhombus;whiteSpace=wrap;html=1;" parent="WIyWlLk6GJQsqaUBKTNV-1" vertex="1">
          <mxGeometry x="1020" y="310" width="80" height="80" as="geometry" />
        </mxCell>
        <mxCell id="dVmutsHbmYvGbCXH2BlX-79" value="" style="endArrow=none;html=1;entryX=0.5;entryY=1;entryDx=0;entryDy=0;exitX=0.5;exitY=0;exitDx=0;exitDy=0;" parent="WIyWlLk6GJQsqaUBKTNV-1" source="dVmutsHbmYvGbCXH2BlX-75" target="dVmutsHbmYvGbCXH2BlX-74" edge="1">
          <mxGeometry width="50" height="50" relative="1" as="geometry">
            <mxPoint x="1060" y="300" as="sourcePoint" />
            <mxPoint x="610" y="330" as="targetPoint" />
          </mxGeometry>
        </mxCell>
        <mxCell id="dVmutsHbmYvGbCXH2BlX-94" value="M" style="text;html=1;align=center;verticalAlign=middle;resizable=0;points=[];labelBackgroundColor=#ffffff;" parent="dVmutsHbmYvGbCXH2BlX-79" vertex="1" connectable="0">
          <mxGeometry x="-0.1386" y="1" relative="1" as="geometry">
            <mxPoint as="offset" />
          </mxGeometry>
        </mxCell>
        <mxCell id="dVmutsHbmYvGbCXH2BlX-80" value="" style="endArrow=none;html=1;entryX=0.5;entryY=1;entryDx=0;entryDy=0;exitX=0.5;exitY=0;exitDx=0;exitDy=0;" parent="WIyWlLk6GJQsqaUBKTNV-1" source="dVmutsHbmYvGbCXH2BlX-30" target="dVmutsHbmYvGbCXH2BlX-75" edge="1">
          <mxGeometry width="50" height="50" relative="1" as="geometry">
            <mxPoint x="1060" y="530" as="sourcePoint" />
            <mxPoint x="610" y="330" as="targetPoint" />
          </mxGeometry>
        </mxCell>
        <mxCell id="dVmutsHbmYvGbCXH2BlX-93" value="N" style="text;html=1;align=center;verticalAlign=middle;resizable=0;points=[];labelBackgroundColor=#ffffff;" parent="dVmutsHbmYvGbCXH2BlX-80" vertex="1" connectable="0">
          <mxGeometry x="0.2132" y="-2" relative="1" as="geometry">
            <mxPoint as="offset" />
          </mxGeometry>
        </mxCell>
        <mxCell id="dVmutsHbmYvGbCXH2BlX-81" value="声量统计报表" style="rounded=0;whiteSpace=wrap;html=1;" parent="WIyWlLk6GJQsqaUBKTNV-1" vertex="1">
          <mxGeometry x="1000" y="-210" width="120" height="60" as="geometry" />
        </mxCell>
        <mxCell id="dVmutsHbmYvGbCXH2BlX-95" value="聚合" style="rhombus;whiteSpace=wrap;html=1;" parent="WIyWlLk6GJQsqaUBKTNV-1" vertex="1">
          <mxGeometry x="1020" y="-60" width="80" height="80" as="geometry" />
        </mxCell>
        <mxCell id="dVmutsHbmYvGbCXH2BlX-96" value="" style="endArrow=none;html=1;entryX=0.5;entryY=1;entryDx=0;entryDy=0;exitX=0.5;exitY=0;exitDx=0;exitDy=0;" parent="WIyWlLk6GJQsqaUBKTNV-1" source="dVmutsHbmYvGbCXH2BlX-95" target="dVmutsHbmYvGbCXH2BlX-81" edge="1">
          <mxGeometry width="50" height="50" relative="1" as="geometry">
            <mxPoint x="1060" y="-70" as="sourcePoint" />
            <mxPoint x="630" y="-40" as="targetPoint" />
          </mxGeometry>
        </mxCell>
        <mxCell id="dVmutsHbmYvGbCXH2BlX-99" value="1" style="text;html=1;align=center;verticalAlign=middle;resizable=0;points=[];labelBackgroundColor=#ffffff;" parent="dVmutsHbmYvGbCXH2BlX-96" vertex="1" connectable="0">
          <mxGeometry x="0.2442" y="-2" relative="1" as="geometry">
            <mxPoint as="offset" />
          </mxGeometry>
        </mxCell>
        <mxCell id="dVmutsHbmYvGbCXH2BlX-97" value="" style="endArrow=none;html=1;entryX=0.5;entryY=1;entryDx=0;entryDy=0;exitX=0.5;exitY=0;exitDx=0;exitDy=0;" parent="WIyWlLk6GJQsqaUBKTNV-1" source="dVmutsHbmYvGbCXH2BlX-74" target="dVmutsHbmYvGbCXH2BlX-95" edge="1">
          <mxGeometry width="50" height="50" relative="1" as="geometry">
            <mxPoint x="580" y="10" as="sourcePoint" />
            <mxPoint x="630" y="-40" as="targetPoint" />
          </mxGeometry>
        </mxCell>
        <mxCell id="dVmutsHbmYvGbCXH2BlX-98" value="N" style="text;html=1;align=center;verticalAlign=middle;resizable=0;points=[];labelBackgroundColor=#ffffff;" parent="dVmutsHbmYvGbCXH2BlX-97" vertex="1" connectable="0">
          <mxGeometry x="0.3598" y="2" relative="1" as="geometry">
            <mxPoint as="offset" />
          </mxGeometry>
        </mxCell>
        <mxCell id="dVmutsHbmYvGbCXH2BlX-100" value="拥有" style="rhombus;whiteSpace=wrap;html=1;" parent="WIyWlLk6GJQsqaUBKTNV-1" vertex="1">
          <mxGeometry x="490" y="-220" width="80" height="80" as="geometry" />
        </mxCell>
        <mxCell id="dVmutsHbmYvGbCXH2BlX-101" value="" style="endArrow=none;html=1;entryX=0;entryY=0.5;entryDx=0;entryDy=0;exitX=1;exitY=0.5;exitDx=0;exitDy=0;" parent="WIyWlLk6GJQsqaUBKTNV-1" source="dVmutsHbmYvGbCXH2BlX-100" target="dVmutsHbmYvGbCXH2BlX-81" edge="1">
          <mxGeometry width="50" height="50" relative="1" as="geometry">
            <mxPoint x="580" y="10" as="sourcePoint" />
            <mxPoint x="630" y="-40" as="targetPoint" />
          </mxGeometry>
        </mxCell>
        <mxCell id="-rTLP-rK4vmZMO-WSR2V-5" value="N" style="text;html=1;align=center;verticalAlign=middle;resizable=0;points=[];labelBackgroundColor=#ffffff;" vertex="1" connectable="0" parent="dVmutsHbmYvGbCXH2BlX-101">
          <mxGeometry x="-0.243" y="-1" relative="1" as="geometry">
            <mxPoint as="offset" />
          </mxGeometry>
        </mxCell>
        <mxCell id="dVmutsHbmYvGbCXH2BlX-102" value="" style="endArrow=none;html=1;exitX=0.5;exitY=0;exitDx=0;exitDy=0;entryX=0;entryY=0.5;entryDx=0;entryDy=0;" parent="WIyWlLk6GJQsqaUBKTNV-1" source="dVmutsHbmYvGbCXH2BlX-1" target="dVmutsHbmYvGbCXH2BlX-100" edge="1">
          <mxGeometry width="50" height="50" relative="1" as="geometry">
            <mxPoint x="580" y="10" as="sourcePoint" />
            <mxPoint x="480" y="-40" as="targetPoint" />
            <Array as="points">
              <mxPoint x="140" y="-180" />
            </Array>
          </mxGeometry>
        </mxCell>
        <mxCell id="-rTLP-rK4vmZMO-WSR2V-4" value="1" style="text;html=1;align=center;verticalAlign=middle;resizable=0;points=[];labelBackgroundColor=#ffffff;" vertex="1" connectable="0" parent="dVmutsHbmYvGbCXH2BlX-102">
          <mxGeometry x="0.387" y="2" relative="1" as="geometry">
            <mxPoint as="offset" />
          </mxGeometry>
        </mxCell>
        <mxCell id="dVmutsHbmYvGbCXH2BlX-103" value="" style="endArrow=none;html=1;entryX=0;entryY=0.5;entryDx=0;entryDy=0;" parent="WIyWlLk6GJQsqaUBKTNV-1" target="dVmutsHbmYvGbCXH2BlX-104" edge="1">
          <mxGeometry width="50" height="50" relative="1" as="geometry">
            <mxPoint x="200" y="150" as="sourcePoint" />
            <mxPoint x="250" y="100" as="targetPoint" />
          </mxGeometry>
        </mxCell>
        <mxCell id="-rTLP-rK4vmZMO-WSR2V-6" value="1" style="text;html=1;align=center;verticalAlign=middle;resizable=0;points=[];labelBackgroundColor=#ffffff;" vertex="1" connectable="0" parent="dVmutsHbmYvGbCXH2BlX-103">
          <mxGeometry x="0.0765" y="-1" relative="1" as="geometry">
            <mxPoint as="offset" />
          </mxGeometry>
        </mxCell>
        <mxCell id="dVmutsHbmYvGbCXH2BlX-104" value="处理" style="rhombus;whiteSpace=wrap;html=1;" parent="WIyWlLk6GJQsqaUBKTNV-1" vertex="1">
          <mxGeometry x="490" y="-80" width="80" height="80" as="geometry" />
        </mxCell>
        <mxCell id="dVmutsHbmYvGbCXH2BlX-105" value="" style="endArrow=none;html=1;entryX=0;entryY=0.5;entryDx=0;entryDy=0;exitX=1;exitY=0.5;exitDx=0;exitDy=0;" parent="WIyWlLk6GJQsqaUBKTNV-1" source="dVmutsHbmYvGbCXH2BlX-104" target="dVmutsHbmYvGbCXH2BlX-74" edge="1">
          <mxGeometry width="50" height="50" relative="1" as="geometry">
            <mxPoint x="580" y="130" as="sourcePoint" />
            <mxPoint x="630" y="80" as="targetPoint" />
          </mxGeometry>
        </mxCell>
        <mxCell id="-rTLP-rK4vmZMO-WSR2V-7" value="N" style="text;html=1;align=center;verticalAlign=middle;resizable=0;points=[];labelBackgroundColor=#ffffff;" vertex="1" connectable="0" parent="dVmutsHbmYvGbCXH2BlX-105">
          <mxGeometry x="-0.1659" y="-4" relative="1" as="geometry">
            <mxPoint as="offset" />
          </mxGeometry>
        </mxCell>
        <mxCell id="dVmutsHbmYvGbCXH2BlX-106" value="正负向处理记录" style="rounded=0;whiteSpace=wrap;html=1;" parent="WIyWlLk6GJQsqaUBKTNV-1" vertex="1">
          <mxGeometry x="1360" y="120" width="120" height="60" as="geometry" />
        </mxCell>
        <mxCell id="dVmutsHbmYvGbCXH2BlX-107" value="生成" style="rhombus;whiteSpace=wrap;html=1;" parent="WIyWlLk6GJQsqaUBKTNV-1" vertex="1">
          <mxGeometry x="1190" y="110" width="80" height="80" as="geometry" />
        </mxCell>
        <mxCell id="dVmutsHbmYvGbCXH2BlX-108" value="" style="endArrow=none;html=1;exitX=1;exitY=0.5;exitDx=0;exitDy=0;" parent="WIyWlLk6GJQsqaUBKTNV-1" source="dVmutsHbmYvGbCXH2BlX-107" target="dVmutsHbmYvGbCXH2BlX-106" edge="1">
          <mxGeometry width="50" height="50" relative="1" as="geometry">
            <mxPoint x="960" y="130" as="sourcePoint" />
            <mxPoint x="1010" y="80" as="targetPoint" />
          </mxGeometry>
        </mxCell>
        <mxCell id="dVmutsHbmYvGbCXH2BlX-112" value="1" style="text;html=1;align=center;verticalAlign=middle;resizable=0;points=[];labelBackgroundColor=#ffffff;" parent="dVmutsHbmYvGbCXH2BlX-108" vertex="1" connectable="0">
          <mxGeometry x="0.3392" y="1" relative="1" as="geometry">
            <mxPoint as="offset" />
          </mxGeometry>
        </mxCell>
        <mxCell id="dVmutsHbmYvGbCXH2BlX-110" value="" style="endArrow=none;html=1;entryX=0;entryY=0.5;entryDx=0;entryDy=0;exitX=1;exitY=0.5;exitDx=0;exitDy=0;" parent="WIyWlLk6GJQsqaUBKTNV-1" source="dVmutsHbmYvGbCXH2BlX-74" target="dVmutsHbmYvGbCXH2BlX-107" edge="1">
          <mxGeometry width="50" height="50" relative="1" as="geometry">
            <mxPoint x="960" y="130" as="sourcePoint" />
            <mxPoint x="1010" y="80" as="targetPoint" />
          </mxGeometry>
        </mxCell>
        <mxCell id="dVmutsHbmYvGbCXH2BlX-111" value="1" style="text;html=1;align=center;verticalAlign=middle;resizable=0;points=[];labelBackgroundColor=#ffffff;" parent="dVmutsHbmYvGbCXH2BlX-110" vertex="1" connectable="0">
          <mxGeometry x="-0.3067" relative="1" as="geometry">
            <mxPoint as="offset" />
          </mxGeometry>
        </mxCell>
        <mxCell id="-rTLP-rK4vmZMO-WSR2V-2" value="" style="endArrow=none;html=1;exitX=1;exitY=0.5;exitDx=0;exitDy=0;entryX=0;entryY=0.5;entryDx=0;entryDy=0;" edge="1" parent="WIyWlLk6GJQsqaUBKTNV-1" source="dVmutsHbmYvGbCXH2BlX-0" target="dVmutsHbmYvGbCXH2BlX-2">
          <mxGeometry width="50" height="50" relative="1" as="geometry">
            <mxPoint x="590" y="80" as="sourcePoint" />
            <mxPoint x="640" y="30" as="targetPoint" />
          </mxGeometry>
        </mxCell>
        <mxCell id="-rTLP-rK4vmZMO-WSR2V-3" value="N" style="text;html=1;align=center;verticalAlign=middle;resizable=0;points=[];labelBackgroundColor=#ffffff;" vertex="1" connectable="0" parent="-rTLP-rK4vmZMO-WSR2V-2">
          <mxGeometry x="0.2914" y="-2" relative="1" as="geometry">
            <mxPoint as="offset" />
          </mxGeometry>
        </mxCell>
        <mxCell id="-rTLP-rK4vmZMO-WSR2V-9" value="logo" style="ellipse;whiteSpace=wrap;html=1;" vertex="1" parent="WIyWlLk6GJQsqaUBKTNV-1">
          <mxGeometry x="-160" y="-240" width="120" height="80" as="geometry" />
        </mxCell>
        <mxCell id="-rTLP-rK4vmZMO-WSR2V-10" value="名称" style="ellipse;whiteSpace=wrap;html=1;" vertex="1" parent="WIyWlLk6GJQsqaUBKTNV-1">
          <mxGeometry x="-160" y="-330" width="120" height="80" as="geometry" />
        </mxCell>
        <mxCell id="-rTLP-rK4vmZMO-WSR2V-11" value="密码" style="ellipse;whiteSpace=wrap;html=1;" vertex="1" parent="WIyWlLk6GJQsqaUBKTNV-1">
          <mxGeometry x="-160" y="130" width="120" height="80" as="geometry" />
        </mxCell>
        <mxCell id="-rTLP-rK4vmZMO-WSR2V-12" value="手机号" style="ellipse;whiteSpace=wrap;html=1;" vertex="1" parent="WIyWlLk6GJQsqaUBKTNV-1">
          <mxGeometry x="-160" y="-50" width="120" height="80" as="geometry" />
        </mxCell>
        <mxCell id="-rTLP-rK4vmZMO-WSR2V-13" value="邮箱" style="ellipse;whiteSpace=wrap;html=1;" vertex="1" parent="WIyWlLk6GJQsqaUBKTNV-1">
          <mxGeometry x="-160" y="40" width="120" height="80" as="geometry" />
        </mxCell>
        <mxCell id="-rTLP-rK4vmZMO-WSR2V-14" value="介绍" style="ellipse;whiteSpace=wrap;html=1;" vertex="1" parent="WIyWlLk6GJQsqaUBKTNV-1">
          <mxGeometry x="-160" y="-150" width="120" height="80" as="geometry" />
        </mxCell>
        <mxCell id="-rTLP-rK4vmZMO-WSR2V-15" value="注册时间" style="ellipse;whiteSpace=wrap;html=1;" vertex="1" parent="WIyWlLk6GJQsqaUBKTNV-1">
          <mxGeometry x="-160" y="220" width="120" height="80" as="geometry" />
        </mxCell>
        <mxCell id="-rTLP-rK4vmZMO-WSR2V-16" value="account_id" style="ellipse;whiteSpace=wrap;html=1;" vertex="1" parent="WIyWlLk6GJQsqaUBKTNV-1">
          <mxGeometry x="-160" y="-420" width="120" height="80" as="geometry" />
        </mxCell>
        <mxCell id="-rTLP-rK4vmZMO-WSR2V-17" value="" style="endArrow=none;html=1;entryX=0.971;entryY=0.656;entryDx=0;entryDy=0;entryPerimeter=0;exitX=0;exitY=0.5;exitDx=0;exitDy=0;" edge="1" parent="WIyWlLk6GJQsqaUBKTNV-1" source="dVmutsHbmYvGbCXH2BlX-1" target="-rTLP-rK4vmZMO-WSR2V-16">
          <mxGeometry width="50" height="50" relative="1" as="geometry">
            <mxPoint x="20" y="-10" as="sourcePoint" />
            <mxPoint x="70" y="-60" as="targetPoint" />
          </mxGeometry>
        </mxCell>
        <mxCell id="-rTLP-rK4vmZMO-WSR2V-18" value="" style="endArrow=none;html=1;entryX=0.996;entryY=0.644;entryDx=0;entryDy=0;entryPerimeter=0;" edge="1" parent="WIyWlLk6GJQsqaUBKTNV-1" target="-rTLP-rK4vmZMO-WSR2V-10">
          <mxGeometry width="50" height="50" relative="1" as="geometry">
            <mxPoint x="80" y="150" as="sourcePoint" />
            <mxPoint x="-30" y="-90" as="targetPoint" />
          </mxGeometry>
        </mxCell>
        <mxCell id="-rTLP-rK4vmZMO-WSR2V-20" value="" style="endArrow=none;html=1;entryX=0;entryY=0.5;entryDx=0;entryDy=0;exitX=1;exitY=0.5;exitDx=0;exitDy=0;" edge="1" parent="WIyWlLk6GJQsqaUBKTNV-1" source="-rTLP-rK4vmZMO-WSR2V-9" target="dVmutsHbmYvGbCXH2BlX-1">
          <mxGeometry width="50" height="50" relative="1" as="geometry">
            <mxPoint x="-40" y="-11" as="sourcePoint" />
            <mxPoint x="70" y="100" as="targetPoint" />
          </mxGeometry>
        </mxCell>
        <mxCell id="-rTLP-rK4vmZMO-WSR2V-21" value="" style="endArrow=none;html=1;" edge="1" parent="WIyWlLk6GJQsqaUBKTNV-1" source="-rTLP-rK4vmZMO-WSR2V-14">
          <mxGeometry width="50" height="50" relative="1" as="geometry">
            <mxPoint x="20" y="150" as="sourcePoint" />
            <mxPoint x="80" y="150" as="targetPoint" />
          </mxGeometry>
        </mxCell>
        <mxCell id="-rTLP-rK4vmZMO-WSR2V-22" value="" style="endArrow=none;html=1;exitX=1;exitY=0.5;exitDx=0;exitDy=0;entryX=0;entryY=0.5;entryDx=0;entryDy=0;" edge="1" parent="WIyWlLk6GJQsqaUBKTNV-1" source="-rTLP-rK4vmZMO-WSR2V-12" target="dVmutsHbmYvGbCXH2BlX-1">
          <mxGeometry width="50" height="50" relative="1" as="geometry">
            <mxPoint x="20" y="150" as="sourcePoint" />
            <mxPoint x="70" y="100" as="targetPoint" />
          </mxGeometry>
        </mxCell>
        <mxCell id="-rTLP-rK4vmZMO-WSR2V-23" value="" style="endArrow=none;html=1;exitX=1;exitY=0.5;exitDx=0;exitDy=0;" edge="1" parent="WIyWlLk6GJQsqaUBKTNV-1" source="-rTLP-rK4vmZMO-WSR2V-13">
          <mxGeometry width="50" height="50" relative="1" as="geometry">
            <mxPoint x="20" y="150" as="sourcePoint" />
            <mxPoint x="80" y="150" as="targetPoint" />
          </mxGeometry>
        </mxCell>
        <mxCell id="-rTLP-rK4vmZMO-WSR2V-24" value="" style="endArrow=none;html=1;exitX=1;exitY=0.5;exitDx=0;exitDy=0;" edge="1" parent="WIyWlLk6GJQsqaUBKTNV-1" source="-rTLP-rK4vmZMO-WSR2V-11">
          <mxGeometry width="50" height="50" relative="1" as="geometry">
            <mxPoint x="20" y="300" as="sourcePoint" />
            <mxPoint x="80" y="150" as="targetPoint" />
          </mxGeometry>
        </mxCell>
        <mxCell id="-rTLP-rK4vmZMO-WSR2V-25" value="" style="endArrow=none;html=1;exitX=1;exitY=0.5;exitDx=0;exitDy=0;" edge="1" parent="WIyWlLk6GJQsqaUBKTNV-1" source="-rTLP-rK4vmZMO-WSR2V-15">
          <mxGeometry width="50" height="50" relative="1" as="geometry">
            <mxPoint x="20" y="300" as="sourcePoint" />
            <mxPoint x="80" y="150" as="targetPoint" />
          </mxGeometry>
        </mxCell>
        <mxCell id="-rTLP-rK4vmZMO-WSR2V-26" value="图片" style="ellipse;whiteSpace=wrap;html=1;" vertex="1" parent="WIyWlLk6GJQsqaUBKTNV-1">
          <mxGeometry x="240" y="260" width="120" height="80" as="geometry" />
        </mxCell>
        <mxCell id="-rTLP-rK4vmZMO-WSR2V-27" value="链接" style="ellipse;whiteSpace=wrap;html=1;" vertex="1" parent="WIyWlLk6GJQsqaUBKTNV-1">
          <mxGeometry x="240" y="360" width="120" height="80" as="geometry" />
        </mxCell>
        <mxCell id="-rTLP-rK4vmZMO-WSR2V-28" value="客户id" style="ellipse;whiteSpace=wrap;html=1;" vertex="1" parent="WIyWlLk6GJQsqaUBKTNV-1">
          <mxGeometry x="240" y="460" width="120" height="80" as="geometry" />
        </mxCell>
        <mxCell id="-rTLP-rK4vmZMO-WSR2V-29" value="状态" style="ellipse;whiteSpace=wrap;html=1;" vertex="1" parent="WIyWlLk6GJQsqaUBKTNV-1">
          <mxGeometry x="240" y="560" width="120" height="80" as="geometry" />
        </mxCell>
        <mxCell id="-rTLP-rK4vmZMO-WSR2V-30" value="上线时间" style="ellipse;whiteSpace=wrap;html=1;" vertex="1" parent="WIyWlLk6GJQsqaUBKTNV-1">
          <mxGeometry x="240" y="660" width="120" height="80" as="geometry" />
        </mxCell>
        <mxCell id="-rTLP-rK4vmZMO-WSR2V-31" value="下线时间" style="ellipse;whiteSpace=wrap;html=1;" vertex="1" parent="WIyWlLk6GJQsqaUBKTNV-1">
          <mxGeometry x="240" y="750" width="120" height="80" as="geometry" />
        </mxCell>
        <mxCell id="-rTLP-rK4vmZMO-WSR2V-33" value="展示条件" style="rounded=0;whiteSpace=wrap;html=1;" vertex="1" parent="WIyWlLk6GJQsqaUBKTNV-1">
          <mxGeometry x="-360" y="540" width="120" height="60" as="geometry" />
        </mxCell>
        <mxCell id="-rTLP-rK4vmZMO-WSR2V-34" value="具有" style="rhombus;whiteSpace=wrap;html=1;" vertex="1" parent="WIyWlLk6GJQsqaUBKTNV-1">
          <mxGeometry x="-120" y="530" width="80" height="80" as="geometry" />
        </mxCell>
        <mxCell id="-rTLP-rK4vmZMO-WSR2V-35" value="" style="endArrow=none;html=1;entryX=0;entryY=0.5;entryDx=0;entryDy=0;exitX=1;exitY=0.5;exitDx=0;exitDy=0;" edge="1" parent="WIyWlLk6GJQsqaUBKTNV-1" source="-rTLP-rK4vmZMO-WSR2V-34" target="dVmutsHbmYvGbCXH2BlX-67">
          <mxGeometry width="50" height="50" relative="1" as="geometry">
            <mxPoint x="20" y="690" as="sourcePoint" />
            <mxPoint x="70" y="640" as="targetPoint" />
          </mxGeometry>
        </mxCell>
        <mxCell id="-rTLP-rK4vmZMO-WSR2V-40" value="1" style="text;html=1;align=center;verticalAlign=middle;resizable=0;points=[];labelBackgroundColor=#ffffff;" vertex="1" connectable="0" parent="-rTLP-rK4vmZMO-WSR2V-35">
          <mxGeometry x="-0.1915" y="-2" relative="1" as="geometry">
            <mxPoint as="offset" />
          </mxGeometry>
        </mxCell>
        <mxCell id="-rTLP-rK4vmZMO-WSR2V-36" value="" style="endArrow=none;html=1;exitX=1;exitY=0.5;exitDx=0;exitDy=0;entryX=0;entryY=0.5;entryDx=0;entryDy=0;" edge="1" parent="WIyWlLk6GJQsqaUBKTNV-1" source="-rTLP-rK4vmZMO-WSR2V-33" target="-rTLP-rK4vmZMO-WSR2V-34">
          <mxGeometry width="50" height="50" relative="1" as="geometry">
            <mxPoint x="20" y="690" as="sourcePoint" />
            <mxPoint x="70" y="640" as="targetPoint" />
          </mxGeometry>
        </mxCell>
        <mxCell id="-rTLP-rK4vmZMO-WSR2V-41" value="N" style="text;html=1;align=center;verticalAlign=middle;resizable=0;points=[];labelBackgroundColor=#ffffff;" vertex="1" connectable="0" parent="-rTLP-rK4vmZMO-WSR2V-36">
          <mxGeometry x="-0.3082" y="1" relative="1" as="geometry">
            <mxPoint as="offset" />
          </mxGeometry>
        </mxCell>
        <mxCell id="-rTLP-rK4vmZMO-WSR2V-37" value="展示" style="rhombus;whiteSpace=wrap;html=1;" vertex="1" parent="WIyWlLk6GJQsqaUBKTNV-1">
          <mxGeometry x="100" y="755" width="80" height="80" as="geometry" />
        </mxCell>
        <mxCell id="-rTLP-rK4vmZMO-WSR2V-38" value="" style="endArrow=none;html=1;entryX=0.5;entryY=1;entryDx=0;entryDy=0;" edge="1" parent="WIyWlLk6GJQsqaUBKTNV-1" source="-rTLP-rK4vmZMO-WSR2V-37" target="dVmutsHbmYvGbCXH2BlX-67">
          <mxGeometry width="50" height="50" relative="1" as="geometry">
            <mxPoint x="-200" y="840" as="sourcePoint" />
            <mxPoint x="-150" y="790" as="targetPoint" />
          </mxGeometry>
        </mxCell>
        <mxCell id="-rTLP-rK4vmZMO-WSR2V-49" value="N" style="text;html=1;align=center;verticalAlign=middle;resizable=0;points=[];labelBackgroundColor=#ffffff;" vertex="1" connectable="0" parent="-rTLP-rK4vmZMO-WSR2V-38">
          <mxGeometry x="0.1536" y="-1" relative="1" as="geometry">
            <mxPoint as="offset" />
          </mxGeometry>
        </mxCell>
        <mxCell id="-rTLP-rK4vmZMO-WSR2V-42" value="用户声量条件" style="rounded=0;whiteSpace=wrap;html=1;" vertex="1" parent="WIyWlLk6GJQsqaUBKTNV-1">
          <mxGeometry x="-360" y="920" width="120" height="60" as="geometry" />
        </mxCell>
        <mxCell id="-rTLP-rK4vmZMO-WSR2V-43" value="" style="endArrow=none;html=1;exitX=1;exitY=0.5;exitDx=0;exitDy=0;entryX=0;entryY=0.5;entryDx=0;entryDy=0;" edge="1" parent="WIyWlLk6GJQsqaUBKTNV-1" source="-rTLP-rK4vmZMO-WSR2V-42" target="-rTLP-rK4vmZMO-WSR2V-44">
          <mxGeometry width="50" height="50" relative="1" as="geometry">
            <mxPoint x="-200" y="840" as="sourcePoint" />
            <mxPoint x="-130" y="950" as="targetPoint" />
          </mxGeometry>
        </mxCell>
        <mxCell id="-rTLP-rK4vmZMO-WSR2V-48" value="N" style="text;html=1;align=center;verticalAlign=middle;resizable=0;points=[];labelBackgroundColor=#ffffff;" vertex="1" connectable="0" parent="-rTLP-rK4vmZMO-WSR2V-43">
          <mxGeometry x="-0.1582" relative="1" as="geometry">
            <mxPoint as="offset" />
          </mxGeometry>
        </mxCell>
        <mxCell id="-rTLP-rK4vmZMO-WSR2V-44" value="具有" style="rhombus;whiteSpace=wrap;html=1;" vertex="1" parent="WIyWlLk6GJQsqaUBKTNV-1">
          <mxGeometry x="-120" y="910" width="80" height="80" as="geometry" />
        </mxCell>
        <mxCell id="-rTLP-rK4vmZMO-WSR2V-45" value="" style="endArrow=none;html=1;exitX=1;exitY=0.5;exitDx=0;exitDy=0;entryX=0;entryY=0.5;entryDx=0;entryDy=0;" edge="1" parent="WIyWlLk6GJQsqaUBKTNV-1" source="-rTLP-rK4vmZMO-WSR2V-44" target="dVmutsHbmYvGbCXH2BlX-24">
          <mxGeometry width="50" height="50" relative="1" as="geometry">
            <mxPoint x="-200" y="840" as="sourcePoint" />
            <mxPoint x="-150" y="790" as="targetPoint" />
          </mxGeometry>
        </mxCell>
        <mxCell id="-rTLP-rK4vmZMO-WSR2V-47" value="1" style="text;html=1;align=center;verticalAlign=middle;resizable=0;points=[];labelBackgroundColor=#ffffff;" vertex="1" connectable="0" parent="-rTLP-rK4vmZMO-WSR2V-45">
          <mxGeometry x="-0.2915" y="3" relative="1" as="geometry">
            <mxPoint as="offset" />
          </mxGeometry>
        </mxCell>
        <mxCell id="-rTLP-rK4vmZMO-WSR2V-46" value="" style="endArrow=none;html=1;exitX=0.5;exitY=0;exitDx=0;exitDy=0;entryX=0.5;entryY=1;entryDx=0;entryDy=0;" edge="1" parent="WIyWlLk6GJQsqaUBKTNV-1" source="dVmutsHbmYvGbCXH2BlX-24" target="-rTLP-rK4vmZMO-WSR2V-37">
          <mxGeometry width="50" height="50" relative="1" as="geometry">
            <mxPoint x="-200" y="840" as="sourcePoint" />
            <mxPoint x="-150" y="790" as="targetPoint" />
          </mxGeometry>
        </mxCell>
        <mxCell id="-rTLP-rK4vmZMO-WSR2V-50" value="1" style="text;html=1;align=center;verticalAlign=middle;resizable=0;points=[];labelBackgroundColor=#ffffff;" vertex="1" connectable="0" parent="-rTLP-rK4vmZMO-WSR2V-46">
          <mxGeometry x="0.4724" y="2" relative="1" as="geometry">
            <mxPoint as="offset" />
          </mxGeometry>
        </mxCell>
      </root>
    </mxGraphModel>
  </diagram>
</mxfile>
